<?xml version="1.0" encoding="UTF-8"?>
<svg version="1.1" xmlns="http://www.w3.org/2000/svg" width="2000" height="441">
<path d="M0 0 C93.06 0 186.12 0 282 0 C282 26.4 282 52.8 282 80 C293.88 80 305.76 80 318 80 C318 132.47 318 184.94 318 239 C201.51 239 85.02 239 -35 239 C-35 224.48 -35 209.96 -35 195 C-48.53 195 -62.06 195 -76 195 C-76 168.6 -76 142.2 -76 115 C-62.47 115 -48.94 115 -35 115 C-35 103.45 -35 91.9 -35 80 C-23.45 80 -11.9 80 0 80 C0 53.6 0 27.2 0 0 Z " fill="#9C4122" transform="translate(76,60)"/>
<path d="M0 0 C93.06 0 186.12 0 282 0 C282 26.4 282 52.8 282 80 C267.48 80 252.96 80 238 80 C238 65.48 238 50.96 238 36 C211.93 36 185.86 36 159 36 C159 62.07 159 88.14 159 115 C147.45 115 135.9 115 124 115 C124 129.52 124 144.04 124 159 C109.48 159 94.96 159 80 159 C80 118.41 80 77.82 80 36 C68.12 36 56.24 36 44 36 C44 50.52 44 65.04 44 80 C29.48 80 14.96 80 0 80 C0 53.6 0 27.2 0 0 Z " fill="#6D2A0D" transform="translate(76,60)"/>
<path d="M0 0 C11.55 0 23.1 0 35 0 C35 26.4 35 52.8 35 80 C-55.09 80 -145.18 80 -238 80 C-238 65.48 -238 50.96 -238 36 C-159.46 36 -80.92 36 0 36 C0 24.12 0 12.24 0 0 Z " fill="#331604" transform="translate(279,219)"/>
<path d="M0 0 C41.58 0 83.16 0 126 0 C126 8.25 126 16.5 126 25 C92.67 25 59.34 25 25 25 C25 50.41 25 75.82 25 102 C58.33 102 91.66 102 126 102 C126 110.25 126 118.5 126 127 C92.67 127 59.34 127 25 127 C25 160.66 25 194.32 25 229 C16.75 229 8.5 229 0 229 C0 153.43 0 77.86 0 0 Z " fill="#FFFFFF" transform="translate(406,73)"/>
<path d="M0 0 C33.33 0 66.66 0 101 0 C101 8.25 101 16.5 101 25 C75.92 25 50.84 25 25 25 C25 58.66 25 92.32 25 127 C50.08 127 75.16 127 101 127 C101 135.25 101 143.5 101 152 C75.92 152 50.84 152 25 152 C25 177.08 25 202.16 25 228 C16.75 228 8.5 228 0 228 C0 152.76 0 77.52 0 0 Z " fill="#FFFFFF" transform="translate(1573,150)"/>
<path d="M0 0 C8.25 0 16.5 0 25 0 C25 41.91 25 83.82 25 127 C-8.33 127 -41.66 127 -76 127 C-76 118.75 -76 110.5 -76 102 C-50.92 102 -25.84 102 0 102 C0 85.17 0 68.34 0 51 C-25.08 51 -50.16 51 -76 51 C-76 42.75 -76 34.5 -76 26 C-50.92 26 -25.84 26 0 26 C0 17.42 0 8.84 0 0 Z " fill="#FFFFFF" transform="translate(1522,175)"/>
<path d="M0 0 C8.25 0 16.5 0 25 0 C25 41.91 25 83.82 25 127 C-8.33 127 -41.66 127 -76 127 C-76 118.75 -76 110.5 -76 102 C-50.92 102 -25.84 102 0 102 C0 85.17 0 68.34 0 51 C-25.08 51 -50.16 51 -76 51 C-76 42.75 -76 34.5 -76 26 C-50.92 26 -25.84 26 0 26 C0 17.42 0 8.84 0 0 Z " fill="#FFFFFF" transform="translate(913,175)"/>
<path d="M0 0 C40.92 0 81.84 0 124 0 C124 11.88 124 23.76 124 36 C97.6 36 71.2 36 44 36 C44 50.52 44 65.04 44 80 C29.48 80 14.96 80 0 80 C0 53.6 0 27.2 0 0 Z " fill="#331604" transform="translate(76,60)"/>
<path d="M0 0 C40.59 0 81.18 0 123 0 C123 26.4 123 52.8 123 80 C108.48 80 93.96 80 79 80 C79 65.48 79 50.96 79 36 C52.93 36 26.86 36 0 36 C0 24.12 0 12.24 0 0 Z " fill="#331604" transform="translate(235,60)"/>
<path d="M0 0 C8.25 0 16.5 0 25 0 C25 8.58 25 17.16 25 26 C50.08 26 75.16 26 101 26 C101 17.42 101 8.84 101 0 C109.25 0 117.5 0 126 0 C126 16.83 126 33.66 126 51 C92.67 51 59.34 51 25 51 C25 67.83 25 84.66 25 102 C16.75 102 8.5 102 0 102 C0 68.34 0 34.68 0 0 Z " fill="#FFFFFF" transform="translate(583,175)"/>
<path d="M0 0 C8.25 0 16.5 0 25 0 C25 17.16 25 34.32 25 52 C33.25 52 41.5 52 50 52 C50 60.25 50 68.5 50 77 C41.75 77 33.5 77 25 77 C25 118.91 25 160.82 25 204 C16.75 204 8.5 204 0 204 C0 136.68 0 69.36 0 0 Z " fill="#FFFFFF" transform="translate(736,98)"/>
<path d="M0 0 C14.52 0 29.04 0 44 0 C44 11.88 44 23.76 44 36 C55.88 36 67.76 36 80 36 C80 50.52 80 65.04 80 80 C53.6 80 27.2 80 0 80 C0 53.6 0 27.2 0 0 Z " fill="#85412B" transform="translate(314,219)"/>
<path d="M0 0 C8.25 0 16.5 0 25 0 C25 17.16 25 34.32 25 52 C33.25 52 41.5 52 50 52 C50 60.25 50 68.5 50 77 C41.75 77 33.5 77 25 77 C25 110.66 25 144.32 25 179 C16.75 179 8.5 179 0 179 C0 119.93 0 60.86 0 0 Z " fill="#FFFFFF" transform="translate(1725,98)"/>
<path d="M0 0 C8.25 0 16.5 0 25 0 C25 17.16 25 34.32 25 52 C33.25 52 41.5 52 50 52 C50 60.25 50 68.5 50 77 C41.75 77 33.5 77 25 77 C25 110.66 25 144.32 25 179 C16.75 179 8.5 179 0 179 C0 119.93 0 60.86 0 0 Z " fill="#FFFFFF" transform="translate(1116,98)"/>
<path d="M0 0 C26.07 0 52.14 0 79 0 C79 11.55 79 23.1 79 35 C67.45 35 55.9 35 44 35 C44 49.52 44 64.04 44 79 C29.48 79 14.96 79 0 79 C0 52.93 0 26.86 0 0 Z " fill="#331604" transform="translate(156,140)"/>
<path d="M0 0 C16.83 0 33.66 0 51 0 C51 8.25 51 16.5 51 25 C42.42 25 33.84 25 25 25 C25 66.91 25 108.82 25 152 C16.75 152 8.5 152 0 152 C0 101.84 0 51.68 0 0 Z " fill="#FFFFFF" transform="translate(1345,150)"/>
<path d="M0 0 C15.18 0 30.36 0 46 0 C46 8.25 46 16.5 46 25 C39.07 25 32.14 25 25 25 C25 66.91 25 108.82 25 152 C16.75 152 8.5 152 0 152 C0 101.84 0 51.68 0 0 Z " fill="#FFFFFF" transform="translate(1954,150)"/>
<path d="M0 0 C11.88 0 23.76 0 36 0 C36 37.95 36 75.9 36 115 C24.12 115 12.24 115 0 115 C0 77.05 0 39.1 0 0 Z " fill="#6D2A0D" transform="translate(358,140)"/>
<path d="M0 0 C13.53 0 27.06 0 41 0 C41 26.4 41 52.8 41 80 C27.47 80 13.94 80 0 80 C0 53.6 0 27.2 0 0 Z " fill="#331604" transform="translate(0,175)"/>
<path d="M0 0 C8.25 0 16.5 0 25 0 C25 33.66 25 67.32 25 102 C16.75 102 8.5 102 0 102 C0 68.34 0 34.68 0 0 Z " fill="#FFFFFF" transform="translate(532,200)"/>
<path d="M0 0 C8.25 0 16.5 0 25 0 C25 33.66 25 67.32 25 102 C16.75 102 8.5 102 0 102 C0 68.34 0 34.68 0 0 Z " fill="#FFFFFF" transform="translate(1902,175)"/>
<path d="M0 0 C8.25 0 16.5 0 25 0 C25 33.66 25 67.32 25 102 C16.75 102 8.5 102 0 102 C0 68.34 0 34.68 0 0 Z " fill="#FFFFFF" transform="translate(1801,175)"/>
<path d="M0 0 C8.25 0 16.5 0 25 0 C25 33.66 25 67.32 25 102 C16.75 102 8.5 102 0 102 C0 68.34 0 34.68 0 0 Z " fill="#FFFFFF" transform="translate(1674,175)"/>
<path d="M0 0 C8.25 0 16.5 0 25 0 C25 33.66 25 67.32 25 102 C16.75 102 8.5 102 0 102 C0 68.34 0 34.68 0 0 Z " fill="#FFFFFF" transform="translate(1293,175)"/>
<path d="M0 0 C8.25 0 16.5 0 25 0 C25 33.66 25 67.32 25 102 C16.75 102 8.5 102 0 102 C0 68.34 0 34.68 0 0 Z " fill="#FFFFFF" transform="translate(1192,175)"/>
<path d="M0 0 C8.25 0 16.5 0 25 0 C25 33.66 25 67.32 25 102 C16.75 102 8.5 102 0 102 C0 68.34 0 34.68 0 0 Z " fill="#FFFFFF" transform="translate(964,175)"/>
<path d="M0 0 C14.52 0 29.04 0 44 0 C44 14.52 44 29.04 44 44 C29.48 44 14.96 44 0 44 C0 29.48 0 14.96 0 0 Z " fill="#9C4122" transform="translate(235,96)"/>
<path d="M0 0 C8.25 0 16.5 0 25 0 C25 25.41 25 50.82 25 77 C16.75 77 8.5 77 0 77 C0 51.59 0 26.18 0 0 Z " fill="#FFFFFF" transform="translate(532,98)"/>
<path d="M0 0 C25.08 0 50.16 0 76 0 C76 8.25 76 16.5 76 25 C50.92 25 25.84 25 0 25 C0 16.75 0 8.5 0 0 Z " fill="#FFFFFF" transform="translate(1826,277)"/>
<path d="M0 0 C25.08 0 50.16 0 76 0 C76 8.25 76 16.5 76 25 C50.92 25 25.84 25 0 25 C0 16.75 0 8.5 0 0 Z " fill="#FFFFFF" transform="translate(1217,277)"/>
<path d="M0 0 C25.08 0 50.16 0 76 0 C76 8.25 76 16.5 76 25 C50.92 25 25.84 25 0 25 C0 16.75 0 8.5 0 0 Z " fill="#FFFFFF" transform="translate(989,277)"/>
<path d="M0 0 C25.08 0 50.16 0 76 0 C76 8.25 76 16.5 76 25 C50.92 25 25.84 25 0 25 C0 16.75 0 8.5 0 0 Z " fill="#FFFFFF" transform="translate(608,277)"/>
<path d="M0 0 C25.08 0 50.16 0 76 0 C76 8.25 76 16.5 76 25 C50.92 25 25.84 25 0 25 C0 16.75 0 8.5 0 0 Z " fill="#FFFFFF" transform="translate(1826,150)"/>
<path d="M0 0 C25.08 0 50.16 0 76 0 C76 8.25 76 16.5 76 25 C50.92 25 25.84 25 0 25 C0 16.75 0 8.5 0 0 Z " fill="#FFFFFF" transform="translate(1446,150)"/>
<path d="M0 0 C25.08 0 50.16 0 76 0 C76 8.25 76 16.5 76 25 C50.92 25 25.84 25 0 25 C0 16.75 0 8.5 0 0 Z " fill="#FFFFFF" transform="translate(1217,150)"/>
<path d="M0 0 C25.08 0 50.16 0 76 0 C76 8.25 76 16.5 76 25 C50.92 25 25.84 25 0 25 C0 16.75 0 8.5 0 0 Z " fill="#FFFFFF" transform="translate(989,150)"/>
<path d="M0 0 C25.08 0 50.16 0 76 0 C76 8.25 76 16.5 76 25 C50.92 25 25.84 25 0 25 C0 16.75 0 8.5 0 0 Z " fill="#FFFFFF" transform="translate(837,150)"/>
<path d="M0 0 C25.08 0 50.16 0 76 0 C76 8.25 76 16.5 76 25 C50.92 25 25.84 25 0 25 C0 16.75 0 8.5 0 0 Z " fill="#FFFFFF" transform="translate(608,150)"/>
<path d="M0 0 C11.88 0 23.76 0 36 0 C36 14.52 36 29.04 36 44 C24.12 44 12.24 44 0 44 C0 29.48 0 14.96 0 0 Z " fill="#9C4122" transform="translate(358,255)"/>
<path d="M0 0 C11.55 0 23.1 0 35 0 C35 14.52 35 29.04 35 44 C23.45 44 11.9 44 0 44 C0 29.48 0 14.96 0 0 Z " fill="#85412B" transform="translate(200,175)"/>
<path d="M0 0 C14.52 0 29.04 0 44 0 C44 11.55 44 23.1 44 35 C29.48 35 14.96 35 0 35 C0 23.45 0 11.9 0 0 Z " fill="#6D2A0D" transform="translate(235,140)"/>
<path d="M0 0 C11.55 0 23.1 0 35 0 C35 14.52 35 29.04 35 44 C23.45 44 11.9 44 0 44 C0 29.48 0 14.96 0 0 Z " fill="#6D2A0D" transform="translate(279,96)"/>
<path d="M0 0 C8.25 0 16.5 0 25 0 C25 16.83 25 33.66 25 51 C16.75 51 8.5 51 0 51 C0 34.17 0 17.34 0 0 Z " fill="#FFFFFF" transform="translate(1421,226)"/>
<path d="M0 0 C8.25 0 16.5 0 25 0 C25 16.83 25 33.66 25 51 C16.75 51 8.5 51 0 51 C0 34.17 0 17.34 0 0 Z " fill="#FFFFFF" transform="translate(812,226)"/>
<path d="M0 0 C11.88 0 23.76 0 36 0 C36 11.55 36 23.1 36 35 C24.12 35 12.24 35 0 35 C0 23.45 0 11.9 0 0 Z " fill="#331604" transform="translate(358,140)"/>
<path d="M0 0 C11.55 0 23.1 0 35 0 C35 11.55 35 23.1 35 35 C23.45 35 11.9 35 0 35 C0 23.45 0 11.9 0 0 Z " fill="#331604" transform="translate(41,140)"/>
<path d="M0 0 C8.25 0 16.5 0 25 0 C25 8.25 25 16.5 25 25 C16.75 25 8.5 25 0 25 C0 16.75 0 8.5 0 0 Z " fill="#FFFFFF" transform="translate(1750,277)"/>
<path d="M0 0 C8.25 0 16.5 0 25 0 C25 8.25 25 16.5 25 25 C16.75 25 8.5 25 0 25 C0 16.75 0 8.5 0 0 Z " fill="#FFFFFF" transform="translate(1141,277)"/>
<path d="M0 0 C8.25 0 16.5 0 25 0 C25 8.25 25 16.5 25 25 C16.75 25 8.5 25 0 25 C0 16.75 0 8.5 0 0 Z " fill="#FFFFFF" transform="translate(1065,252)"/>
<path d="M0 0 C8.25 0 16.5 0 25 0 C25 8.25 25 16.5 25 25 C16.75 25 8.5 25 0 25 C0 16.75 0 8.5 0 0 Z " fill="#FFFFFF" transform="translate(684,252)"/>
<path d="M0 0 C8.25 0 16.5 0 25 0 C25 8.25 25 16.5 25 25 C16.75 25 8.5 25 0 25 C0 16.75 0 8.5 0 0 Z " fill="#FFFFFF" transform="translate(1065,175)"/>
<path d="M0 0 C8.25 0 16.5 0 25 0 C25 8.25 25 16.5 25 25 C16.75 25 8.5 25 0 25 C0 16.75 0 8.5 0 0 Z " fill="#FFFFFF" transform="translate(761,73)"/>
</svg>
